PathFileType	4	(X/Y/Z)	/Users/itak/Documents/Research/Walk-IL/dataset/trc/00482_00167.trc
DataRate	CameraRate	NumFrames	NumMarkers	Units	OrigDataRate	OrigDataStartFrame	OrigNumFrames
100.000000	100.000000	4	53	mm	100.000000	414	552
Frame#	Time	RPSI			LPSI			L3			STRN			T10			C7			CLAV			RBAK			LBAK			LSHO			LUPA			LAEL			LAOL			LWTS			LWPS			LFRA			LIFD			LHPS			LHTS			RSHO			RUPA			RAEL			RAOL			RWTS			RWPS			RFRA			RIFD			RHTS			RHPS			RBHD			LFHD			RFHD			LBHD			LHIP			RHIP			RASI			LASI			LKNE			LTHI			LANK			LTIP			LTOE			LMT1			LMT5			LHEE			RKNE			RTHI			RANK			RTIP			RTOE			RMT1			RMT5			RHEE			
		X1	Y1	Z1	X2	Y2	Z2	X3	Y3	Z3	X4	Y4	Z4	X5	Y5	Z5	X6	Y6	Z6	X7	Y7	Z7	X8	Y8	Z8	X9	Y9	Z9	X10	Y10	Z10	X11	Y11	Z11	X12	Y12	Z12	X13	Y13	Z13	X14	Y14	Z14	X15	Y15	Z15	X16	Y16	Z16	X17	Y17	Z17	X18	Y18	Z18	X19	Y19	Z19	X20	Y20	Z20	X21	Y21	Z21	X22	Y22	Z22	X23	Y23	Z23	X24	Y24	Z24	X25	Y25	Z25	X26	Y26	Z26	X27	Y27	Z27	X28	Y28	Z28	X29	Y29	Z29	X30	Y30	Z30	X31	Y31	Z31	X32	Y32	Z32	X33	Y33	Z33	X34	Y34	Z34	X35	Y35	Z35	X36	Y36	Z36	X37	Y37	Z37	X38	Y38	Z38	X39	Y39	Z39	X40	Y40	Z40	X41	Y41	Z41	X42	Y42	Z42	X43	Y43	Z43	X44	Y44	Z44	X45	Y45	Z45	X46	Y46	Z46	X47	Y47	Z47	X48	Y48	Z48	X49	Y49	Z49	X50	Y50	Z50	X51	Y51	Z51	X52	Y52	Z52	X53	Y53	Z53	

415	4.14	-256.1820373535156	926.9924926757812	-359.9048461914062	-280.5110473632812	906.8547973632812	-220.9544372558594	-280.3652648925781	1021.587707519531	-313.9237365722656	-560.5786743164062	1208.212646484375	-298.278564453125	-275.9343872070312	1146.258544921875	-307.5252380371094	-348.3518676757812	1415.211181640625	-294.8780822753906	-526.24755859375	1320.446166992188	-280.3804321289062	-281.8486328125	1305.580078125	-401.8984375	-305.2831420898438	1358.121337890625	-208.5106201171875	-398.7742919921875	1363.795776367188	-118.3231735229492	-355.4830932617188	1240.961547851562	-36.96307754516602	-327.7596130371094	1032.169189453125	-10.29751396179199	-275.6116638183594	1029.638671875	-100.0442276000977	-365.152587890625	814.3287353515625	-20.31834411621094	-296.7104797363281	816.0134887695312	9.482816696166992	-321.3913879394531	943.9483642578125	5.128545761108398	-319.0519714355469	660.452880859375	-10.45506954193115	-279.5748901367188	741.1173706054688	10.24176597595215	-350.15283203125	729.1304931640625	-6.480616092681885	-414.5060119628906	1401.398559570312	-448.9106140136719	-393.0960998535156	1358.622680664062	-532.6372680664062	-404.8155212402344	1110.737548828125	-671.662109375	-359.7954406738281	1066.220336914062	-643.5899658203125	-583.5774536132812	966.2127075195312	-647.5928955078125	-539.170166015625	938.8063354492188	-719.6248168945312	-433.7896423339844	1062.431762695312	-691.5863647460938	-664.172607421875	837.9882202148438	-683.0481567382812	-645.3369140625	894.4434204101562	-671.6022338867188	-596.3609619140625	872.1652221679688	-728.4688110351562	-516.6609497070312	1601.555908203125	-361.0896911621094	-623.6697387695312	1551.365112304688	-191.2039337158203	-641.1029663085938	1556.947387695312	-319.94775390625	-480.2687072753906	1604.487915039062	-187.4380493164062	-450.1160278320312	818.0250854492188	-136.8844146728516	-338.9819946289062	837.13037109375	-527.967041015625	-459.4319152832031	867.5709838867188	-482.2309875488281	-518.815673828125	862.9589233398438	-236.1766815185547	-627.572509765625	445.9237060546875	-171.7766571044922	-586.9332275390625	589.3514404296875	-157.4098052978516	-673.0518188476562	40.8233757019043	-143.5923461914062	-665.5797119140625	302.799072265625	-151.3955535888672	-891.607421875	70.64942932128906	-241.7239227294922	-813.601806640625	60.81613922119141	-261.2488098144531	-822.4219970703125	64.72348785400391	-151.2309875488281	-619.6221313476562	38.63494491577148	-201.4662017822266	-301.6201171875	448.6237182617188	-493.2547912597656	-367.5223083496094	699.0218505859375	-534.2762451171875	-93.64056396484375	65.83732604980469	-480.3357849121094	-251.3934783935547	306.9724731445312	-494.0448303222656	-300.719482421875	40.94272613525391	-409.6767272949219	-232.8427581787109	44.63027191162109	-383.5740356445312	-223.9248352050781	46.03188323974609	-491.3082580566406	-24.75691413879395	76.17283630371094	-442.0426940917969	
416	4.15	-266.1302795410156	926.7345581054688	-357.7953186035156	-289.9629821777344	907.6347045898438	-218.5427703857422	-290.5789184570312	1021.551147460938	-311.2856140136719	-570.7317504882812	1208.099243164062	-295.617431640625	-285.5644836425781	1146.27197265625	-304.6524353027344	-358.3034057617188	1415.253051757812	-292.0544128417969	-536.2614135742188	1320.334716796875	-277.8994140625	-291.2227478027344	1305.507080078125	-398.7446899414062	-315.3693237304688	1358.169189453125	-205.4243774414062	-409.1183166503906	1363.629516601562	-115.4138107299805	-365.7478637695312	1240.3046875	-34.50893020629883	-337.67333984375	1031.406616210938	-8.903144836425781	-285.9280090332031	1029.217651367188	-98.79539489746094	-375.4317321777344	813.7142944335938	-19.95407295227051	-306.8295593261719	815.0950317382812	9.555156707763672	-331.3615112304688	943.10009765625	6.042643070220947	-329.6943054199219	659.7330932617188	-11.18449878692627	-289.8573913574219	740.1484985351562	9.77851676940918	-360.5491638183594	728.45263671875	-6.675507068634033	-424.0408325195312	1400.942138671875	-446.5339965820312	-402.0509033203125	1357.586547851562	-529.9680786132812	-411.4869079589844	1108.231567382812	-667.1942138671875	-366.5363159179688	1064.522094726562	-638.08056640625	-588.08740234375	960.939697265625	-644.3380737304688	-542.5016479492188	933.9189453125	-715.8504638671875	-439.28466796875	1059.382446289062	-687.2863159179688	-666.1525268554688	831.2363891601562	-680.001220703125	-648.3800659179688	888.0612182617188	-668.599853515625	-598.47021484375	866.352294921875	-724.9553833007812	-526.5624389648438	1601.349609375	-358.7770690917969	-634.41552734375	1551.048583984375	-189.4808349609375	-651.1318359375	1556.558471679688	-318.2422180175781	-491.1474609375	1604.44677734375	-184.9382171630859	-459.2990112304688	819.1495971679688	-133.8988800048828	-349.3042907714844	836.3455810546875	-525.3284912109375	-469.7051086425781	866.9664306640625	-479.3623962402344	-528.5908203125	863.9139404296875	-233.0516204833984	-637.732421875	447.0087280273438	-170.3459167480469	-596.974609375	590.835205078125	-154.7185516357422	-674.4964599609375	40.8270149230957	-143.3753814697266	-673.797607421875	302.4154357910156	-150.5713958740234	-895.1417846679688	60.81887435913086	-242.2033081054688	-815.9119262695312	55.81607818603516	-261.4225463867188	-825.8087158203125	58.34033584594727	-150.9645843505859	-620.7975463867188	40.60552978515625	-201.1919860839844	-311.0657653808594	448.64453125	-492.2901306152344	-377.6282043457031	698.5902099609375	-532.0905151367188	-95.24532318115234	68.78557586669922	-480.8560791015625	-258.0829772949219	307.9537963867188	-493.9147033691406	-300.7036437988281	40.91962432861328	-409.6306762695312	-233.4676361083984	45.32751083374023	-383.8367614746094	-224.5101013183594	45.98237991333008	-491.4419250488281	-26.57952117919922	81.80545806884766	-442.7911682128906	
417	4.16	-275.8548889160156	926.8340454101562	-356.134765625	-298.9506225585938	908.8343505859375	-216.5560607910156	-300.5917663574219	1022.0693359375	-308.9196166992188	-580.8397827148438	1208.368530273438	-292.8932800292969	-294.9832763671875	1146.817016601562	-301.9841003417969	-368.2660522460938	1415.72998046875	-289.2427978515625	-546.2345581054688	1320.612670898438	-275.3849182128906	-300.6439819335938	1305.965576171875	-395.7058715820312	-325.4432373046875	1358.669311523438	-202.3259429931641	-419.4579467773438	1363.880493164062	-112.5110855102539	-376.168212890625	1240.051513671875	-32.03061676025391	-347.9173278808594	1031.021606445312	-7.488661766052246	-296.4664306640625	1029.152465820312	-97.43783569335938	-386.1766967773438	813.5028076171875	-19.59748458862305	-317.421142578125	814.5391235351562	9.672184944152832	-341.7416076660156	942.6226806640625	6.982819557189941	-340.9309692382812	659.3922729492188	-11.8469820022583	-300.6799011230469	739.53173828125	9.376087188720703	-371.4662475585938	728.1732177734375	-6.856460094451904	-433.7058715820312	1400.904907226562	-444.1539001464844	-411.1976013183594	1356.968505859375	-527.2999267578125	-418.1383361816406	1106.047241210938	-662.5169067382812	-373.2145385742188	1063.290771484375	-632.2752685546875	-592.1093139648438	955.54931640625	-641.1256103515625	-545.1102905273438	929.0515747070312	-711.9939575195312	-444.5588989257812	1056.576049804688	-682.8072509765625	-667.2738647460938	824.283447265625	-677.2542724609375	-650.7180786132812	881.49267578125	-665.8233032226562	-599.6845703125	860.4840087890625	-721.5211791992188	-536.5819702148438	1601.468872070312	-356.4071044921875	-645.2871704101562	1550.935913085938	-187.7397766113281	-661.2604370117188	1556.393676757812	-316.5328369140625	-502.1946716308594	1604.70556640625	-182.3696441650391	-467.9062194824219	820.7533569335938	-130.8947448730469	-359.7179870605469	835.8126831054688	-522.830078125	-479.8715209960938	866.7387084960938	-476.3069763183594	-538.0021362304688	865.3982543945312	-229.7183837890625	-647.7813720703125	448.5259094238281	-168.7425537109375	-606.8970336914062	592.9169921875	-151.7249298095703	-675.5904541015625	40.95589447021484	-143.1390991210938	-681.6921997070312	302.3689270019531	-149.4747467041016	-897.6599731445312	53.04830551147461	-242.568115234375	-817.5347900390625	52.05666351318359	-261.4013061523438	-828.428955078125	53.39402389526367	-150.5105438232422	-621.7304077148438	42.22168731689453	-200.9071350097656	-321.0976867675781	448.8373107910156	-491.5150146484375	-387.9595336914062	698.4208374023438	-529.903564453125	-97.13816070556641	72.18128967285156	-481.380615234375	-265.2247619628906	309.2413635253906	-494.0116271972656	-300.6833190917969	40.90055465698242	-409.5780029296875	-234.2563171386719	46.15922164916992	-384.1104736328125	-225.1497802734375	45.92876434326172	-491.561279296875	-28.90028762817383	88.06169891357422	-443.4971923828125	
418	4.17	-285.3529052734375	927.3021240234375	-354.8352661132812	-307.5295715332031	910.3578491210938	-214.9322967529297	-310.3463134765625	1023.152648925781	-306.792236328125	-590.8543701171875	1209.04931640625	-290.1457214355469	-304.1651306152344	1147.883544921875	-299.5194396972656	-378.1990051269531	1416.644165039062	-286.4777221679688	-556.12744140625	1321.305786132812	-272.8607788085938	-310.0906066894531	1306.951904296875	-392.8150939941406	-335.4686584472656	1359.624389648438	-199.2642059326172	-429.7455749511719	1364.584228515625	-109.6535491943359	-386.7212524414062	1240.2607421875	-29.54317665100098	-358.5001525878906	1031.061767578125	-6.05095100402832	-307.1828308105469	1029.485961914062	-95.95671844482422	-397.4034423828125	813.731689453125	-19.24934959411621	-328.5215759277344	814.3848876953125	9.869533538818359	-352.5514526367188	942.5640258789062	7.960853099822998	-352.7382202148438	659.4646606445312	-12.45715808868408	-312.0645446777344	739.3079833984375	9.06568717956543	-382.9126586914062	728.3128051757812	-7.043621063232422	-443.4581298828125	1401.309204101562	-441.7904968261719	-420.5160217285156	1356.8076171875	-524.6603393554688	-424.7921752929688	1104.237548828125	-657.6570434570312	-379.8115234375	1062.57763671875	-626.2257080078125	-595.622802734375	950.0933837890625	-637.9503784179688	-546.9923706054688	924.2841186523438	-708.0390625	-449.6426086425781	1054.078247070312	-678.1533203125	-667.4808959960938	817.1800537109375	-674.7706909179688	-652.3046875	874.7831420898438	-663.2501220703125	-599.9703369140625	854.63134765625	-718.1324462890625	-546.70263671875	1601.917114257812	-354.0013122558594	-656.2386474609375	1551.006713867188	-185.9958953857422	-671.4555053710938	1556.433959960938	-314.8391418457031	-513.3756713867188	1605.26904296875	-179.7574157714844	-476.0475769042969	822.7098999023438	-127.8972549438477	-370.1819152832031	835.6089477539062	-520.457275390625	-489.8982238769531	866.943115234375	-473.06982421875	-547.0875854492188	867.3299560546875	-226.2035675048828	-657.5621948242188	450.2947387695312	-166.9828033447266	-616.6200561523438	595.3958740234375	-148.5710754394531	-676.3931884765625	41.14740371704102	-142.9103546142578	-689.129150390625	302.5551452636719	-148.1387329101562	-899.3237915039062	47.46286392211914	-242.8147583007812	-818.610595703125	49.52288436889648	-261.2202453613281	-830.3343505859375	49.89028930664062	-149.9358673095703	-622.46240234375	43.43968963623047	-200.6354217529297	-331.7230529785156	449.2382202148438	-491.0182189941406	-398.4744567871094	698.5704345703125	-527.7362670898438	-99.35769653320312	76.08303833007812	-481.9417114257812	-272.8542785644531	310.8927612304688	-494.4161071777344	-300.6514282226562	40.88164138793945	-409.529052734375	-235.2322082519531	47.12936401367188	-384.3870544433594	-225.8505096435547	45.87335586547852	-491.6632995605469	-31.81571578979492	94.93936157226562	-444.1537475585938	
